<svg width="58" height="58" viewBox="0 0 58 58" fill="none" xmlns="http://www.w3.org/2000/svg">
<g clip-path="url(#clip0_304_319)">
<path d="M18.1683 15.1828C16.1199 15.1828 14.4054 16.582 13.892 18.4737C12.0827 18.728 10.6777 20.2687 10.6777 22.1457C10.6777 23.9715 11.9932 25.4958 13.7237 25.8387L13.7317 25.8396C14.3725 25.9573 15.0075 26.1049 15.6345 26.2818L15.6407 26.2836C18.1358 26.9565 22.9893 27.8787 28.3624 27.7438C28.7053 28.4442 29.2308 29.0383 29.8948 29.44L29.8885 29.4355C30.1214 29.5802 30.3098 29.9654 30.3098 30.1908C30.3118 30.8309 30.5669 31.4443 31.0195 31.8971C31.4721 32.3499 32.0854 32.6052 32.7256 32.6075C33.3566 32.6075 33.9529 32.4173 34.4044 32.0352C34.856 31.6532 35.1437 31.0676 35.1437 30.4036L35.1423 30.0438L35.1405 30.0028C35.0871 29.2697 35.2421 28.5364 35.5876 27.8876V27.8867C35.7809 27.5287 35.9025 27.131 35.9813 26.7195C36.8554 26.4907 37.7256 26.235 38.5775 25.914L38.5797 25.9131C38.8783 25.7982 39.1891 25.7175 39.5059 25.6726L39.5077 25.6722C40.3997 25.5476 41.2168 25.1051 41.8084 24.4259C42.4 23.7468 42.7263 22.8768 42.7273 21.9761C42.7273 19.9223 41.0507 18.2452 38.9965 18.2452C38.4042 18.2452 37.8534 18.4033 37.3564 18.6491C36.6412 17.0282 35.0296 15.8918 33.1495 15.8918C31.0156 15.8918 29.2299 17.3604 28.7084 19.334C27.9234 18.418 26.7856 17.8111 25.4879 17.8111C24.3395 17.8111 23.3295 18.3 22.5591 19.0401C22.2652 16.8692 20.4167 15.1824 18.1674 15.1824L18.1683 15.1828ZM18.1683 16.2017C18.7174 16.2004 19.2587 16.3311 19.7466 16.5828C20.2346 16.8345 20.6549 17.1998 20.9721 17.6479C21.2893 18.096 21.4942 18.6138 21.5694 19.1576C21.6447 19.7015 21.5881 20.2554 21.4044 20.7728C21.3799 20.843 21.3711 20.9177 21.3785 20.9916C21.3859 21.0655 21.4094 21.137 21.4473 21.2009C21.4852 21.2648 21.5367 21.3196 21.5981 21.3615C21.6594 21.4034 21.7292 21.4314 21.8025 21.4435L21.815 21.4457C21.9315 21.4616 22.0499 21.4367 22.1501 21.3753C22.2504 21.3138 22.3263 21.2196 22.365 21.1086L22.3654 21.1099L22.3663 21.1077L22.3828 21.0975C22.593 20.4386 23.0073 19.8637 23.5658 19.4558C24.1244 19.0479 24.7981 18.8283 25.4897 18.8286C26.1769 18.8285 26.8466 19.0455 27.4031 19.4488C27.9595 19.852 28.3743 20.4208 28.5882 21.0739C28.6277 21.193 28.7098 21.2934 28.8187 21.3557C28.9276 21.4181 29.0557 21.438 29.1784 21.4117C29.3011 21.3855 29.4098 21.3148 29.4837 21.2134C29.5575 21.1119 29.5913 20.9868 29.5786 20.8619C29.5267 20.3621 29.5806 19.8571 29.7367 19.3795C29.8927 18.9019 30.1475 18.4624 30.4844 18.0897C30.8213 17.7169 31.2329 17.4192 31.6923 17.2159C32.1518 17.0125 32.6489 16.9081 33.1513 16.9093C33.9143 16.909 34.6576 17.1518 35.2732 17.6026C35.8888 18.0533 36.3448 18.6885 36.5749 19.416C36.6143 19.5405 36.7 19.6452 36.8144 19.7084C36.9287 19.7715 37.063 19.7883 37.1894 19.7553L37.5461 19.6618C37.5888 19.6509 37.6299 19.6343 37.6681 19.6124C38.0736 19.3828 38.5318 19.2625 38.9978 19.2632C39.3542 19.2622 39.7074 19.3317 40.0368 19.4676C40.3663 19.6036 40.6657 19.8033 40.9177 20.0553C41.1697 20.3073 41.3694 20.6067 41.5054 20.9362C41.6413 21.2657 41.7108 21.6188 41.7098 21.9752C41.7109 22.6304 41.4743 23.2638 41.044 23.7579C40.6137 24.252 40.0188 24.5733 39.3697 24.6622H39.3674C38.9736 24.7181 38.5875 24.8185 38.2163 24.9615C37.3027 25.3034 36.3702 25.5925 35.4233 25.8271C35.3214 25.8522 35.2297 25.9083 35.161 25.9877C35.0922 26.067 35.0498 26.1657 35.0394 26.2702C34.9996 26.6677 34.8816 27.0533 34.6921 27.4049L34.6917 27.4067C34.2549 28.2255 34.0588 29.1512 34.1261 30.0768L34.1252 30.0349L34.127 30.4027C34.127 30.7924 33.9876 31.0551 33.7485 31.2568C33.5102 31.459 33.1518 31.589 32.7274 31.589C32.5435 31.59 32.3612 31.5546 32.1911 31.4846C32.021 31.4147 31.8665 31.3118 31.7364 31.1817C31.6064 31.0517 31.5034 30.8971 31.4335 30.727C31.3636 30.5569 31.3281 30.3747 31.3291 30.1908C31.3292 29.8663 31.2465 29.5471 31.0888 29.2635C30.9311 28.9799 30.7036 28.7413 30.4278 28.5703L30.4233 28.5658C29.8463 28.2157 29.4017 27.6842 29.1591 27.0544C29.1213 26.9556 29.0535 26.871 28.9653 26.8126C28.8771 26.7541 28.7728 26.7247 28.667 26.7285C23.2992 26.9092 18.3705 25.9625 15.9142 25.3003L15.9079 25.2986C15.2519 25.1128 14.5873 24.9585 13.9165 24.8363L13.9254 24.8377C12.6607 24.5869 11.6993 23.4812 11.6993 22.144C11.6978 21.4412 11.97 20.7655 12.4582 20.2601C12.9464 19.7547 13.6123 19.4593 14.3146 19.4365C14.4307 19.4324 14.5419 19.3887 14.6298 19.3127C14.7176 19.2368 14.7769 19.133 14.7978 19.0188C14.9403 18.2277 15.3563 17.5118 15.9732 16.9964C16.5901 16.4811 17.3685 16.199 18.1723 16.1995L18.1683 16.2017ZM19.2629 0.508007C19.1689 0.524454 19.0815 0.567059 19.0106 0.630937C18.9397 0.694814 18.8882 0.777376 18.8621 0.869156C18.1131 3.49116 19.2879 5.97778 20.8545 7.84097C21.2082 8.26007 21.5859 8.65839 21.9856 9.03396C21.4597 8.96228 20.9257 8.97733 20.4047 9.07849C17.5917 9.63246 15.1963 11.4182 13.8951 15.0924C13.3616 16.5994 13.338 18.1664 13.5099 19.5901C13.768 19.4997 14.0382 19.4488 14.3115 19.4391C14.3811 19.4279 14.4475 19.4018 14.5061 19.3625C14.3636 18.0769 14.4059 16.7005 14.8552 15.4318C16.0633 12.0198 18.0721 10.5752 20.6006 10.0773C21.4717 9.90633 22.1788 10.0519 22.9519 10.3035C23.3384 10.43 23.737 10.5854 24.1649 10.7337L24.2442 10.7582C24.6494 10.8963 25.0791 11.0272 25.5507 11.1176C25.6314 11.133 25.7146 11.1288 25.7932 11.1052C25.8718 11.0815 25.9436 11.0393 26.0024 10.9819C26.0612 10.9246 26.1052 10.8539 26.1308 10.7759C26.1564 10.6978 26.1627 10.6148 26.1492 10.5338C26.0475 9.91482 26.0471 9.28345 26.1479 8.66435C26.1688 8.53966 26.1871 8.41364 26.2138 8.29163C26.3697 7.59694 26.6355 6.95925 26.9486 6.39103C27.3699 5.63495 27.9004 4.94503 28.5227 4.34348C28.6902 4.4704 28.8581 4.58395 29.0251 4.77098C29.1065 4.86227 29.1016 4.86673 29.164 4.94377C28.3758 5.67541 26.6235 7.66106 26.9027 10.7702C26.9146 10.9 26.9757 11.0202 27.0735 11.1063C27.1713 11.1924 27.2984 11.2377 27.4286 11.2329C28.5432 11.1928 29.2873 10.8232 29.9375 10.5235C30.5877 10.2238 31.1452 9.98203 32.1498 10.0132C34.2281 10.0787 36.0405 11.7116 36.7539 12.7078C37.5243 13.8807 38.4719 15.3387 38.3183 19.3354V19.3523C38.5398 19.2941 38.7679 19.2646 38.9969 19.2646C39.1121 19.2652 39.2255 19.2732 39.3372 19.2886C39.4779 15.1619 38.3744 13.3201 37.5969 12.1369L37.5866 12.12C36.7205 10.9078 34.7518 9.07537 32.1819 8.99522C30.988 8.95826 30.1824 9.28912 29.5118 9.59817C28.9948 9.83641 28.5116 10.0185 27.9216 10.1214C27.9256 7.06746 30.1646 5.41535 30.1646 5.41535C30.2727 5.33657 30.3455 5.21845 30.3672 5.08647C30.389 4.9545 30.3579 4.81927 30.2808 4.70998C30.2808 4.70998 30.0755 4.41874 29.7857 4.09322C29.4962 3.76814 29.1453 3.39185 28.6693 3.19324C28.5808 3.15602 28.4836 3.14463 28.389 3.1604C28.2943 3.17616 28.206 3.21843 28.1344 3.2823C27.3034 4.03508 26.6016 4.91921 26.057 5.89941C25.943 6.10603 25.8433 6.3318 25.7431 6.55847C25.5236 5.83261 25.2265 5.15841 24.8369 4.53675C23.7615 2.8223 22.0239 1.53445 19.5421 0.536953C19.4536 0.501253 19.3569 0.491221 19.2629 0.508007ZM19.7243 1.74375C21.7429 2.64239 23.1193 3.71559 23.973 5.07736C24.5964 6.07041 24.9571 7.2447 25.1076 8.63496C25.1139 8.7022 25.1183 8.77345 25.1246 8.84248V8.84292C25.1624 9.24459 25.1856 9.65963 25.1905 10.0978C25.0435 10.0199 24.8681 9.90722 24.702 9.80613C24.5938 9.74023 24.4985 9.69302 24.3849 9.61777C23.5156 9.04598 22.4914 8.20612 21.6338 7.18636C20.3228 5.62598 19.4116 3.72049 19.7243 1.74375ZM39.3398 24.6702C38.955 24.7262 38.5776 24.8248 38.2145 24.9641C37.9303 25.0707 37.6441 25.1718 37.356 25.2674C37.3288 25.3186 37.3168 25.344 37.2878 25.4001C37.2731 25.4286 37.2219 25.5052 37.2028 25.5395H38.4706V27.0357C38.4727 27.3958 38.6167 27.7404 38.8715 27.9949C39.1262 28.2493 39.471 28.3931 39.831 28.3948H42.986C43.8659 28.3948 44.7098 28.7443 45.3319 29.3665C45.9541 29.9887 46.3036 30.8325 46.3036 31.7124V45.4975C46.3033 45.9341 46.217 46.3664 46.0495 46.7696C45.882 47.1728 45.6367 47.5391 45.3275 47.8474C44.8622 48.3109 44.2699 48.6261 43.6255 48.7532C43.4108 48.7953 43.1924 48.8161 42.9736 48.8155H42.9714C41.9071 48.8177 40.7902 48.8155 39.8595 48.803C39.6788 48.7994 39.4991 48.8319 39.3311 48.8985C39.163 48.9651 39.0099 49.0645 38.8807 49.191C38.7515 49.3174 38.6488 49.4684 38.5787 49.635C38.5085 49.8016 38.4722 49.9805 38.4719 50.1612C38.4719 51.2745 38.4719 53.1604 38.4675 53.97V53.9722C38.4671 54.0206 38.4564 54.0683 38.436 54.1122C38.4157 54.156 38.3862 54.195 38.3495 54.2265C37.8342 54.6108 36.3398 55.3968 33.455 55.932C32.8248 56.0481 32.1909 56.1431 31.5544 56.217C30.1722 56.3805 28.5544 56.4829 26.6751 56.4829C19.2954 56.4829 15.7815 55.2454 14.8263 54.6972C14.7789 54.6669 14.7399 54.6252 14.7127 54.576C14.6854 54.5268 14.6709 54.4715 14.6704 54.4153L14.609 25.5399H16.4183C16.3929 25.4932 16.38 25.4615 16.355 25.4152C16.2099 25.3783 16.0438 25.3395 15.9115 25.3039L15.9053 25.3026C15.2492 25.1168 14.5846 24.9626 13.9138 24.8403L13.9218 24.8421C13.8443 24.8265 13.7675 24.8075 13.6916 24.7851C13.6364 24.8568 13.6013 24.942 13.5901 25.0318C13.5901 25.0318 13.6449 50.6604 13.6524 54.4171C13.6531 54.6452 13.711 54.8694 13.8209 55.0693C13.9308 55.2692 14.089 55.4383 14.2812 55.5611L14.2999 55.5713C15.5744 56.3092 19.1605 57.5004 26.6747 57.5004C34.3644 57.5004 37.8373 55.8915 38.9787 55.029L38.9952 55.0147C39.1483 54.8874 39.2717 54.7281 39.3564 54.5478C39.4411 54.3676 39.4852 54.1709 39.4854 53.9718C39.4899 53.1537 39.4899 51.2732 39.4899 50.1608C39.4897 50.1155 39.4986 50.0707 39.516 50.0289C39.5335 49.9872 39.5591 49.9493 39.5914 49.9177C39.6238 49.8858 39.6624 49.8603 39.7047 49.8436C39.747 49.8269 39.7922 49.8189 39.8377 49.8201H39.8421C40.7818 49.8326 41.903 49.8344 42.9705 49.8326C43.5411 49.8345 44.1066 49.7237 44.6344 49.5067C45.1621 49.2896 45.6419 48.9706 46.0462 48.5677C46.4504 48.1649 46.7712 47.6863 46.9902 47.1593C47.2091 46.6323 47.3219 46.0673 47.3221 45.4966L47.3225 31.7119C47.3224 30.5618 46.8654 29.4587 46.0521 28.6454C45.2388 27.8321 44.1358 27.3752 42.9856 27.375H39.831C39.7861 27.376 39.7414 27.3678 39.6997 27.351C39.658 27.3342 39.6201 27.3092 39.5883 27.2774C39.5565 27.2457 39.5314 27.2078 39.5146 27.1661C39.4977 27.1244 39.4895 27.0798 39.4903 27.0348V25.0296C39.4904 24.9626 39.4773 24.8962 39.4516 24.8343C39.4259 24.7724 39.3882 24.7162 39.3407 24.6689L39.3398 24.6702ZM40.0434 30.7835C39.8369 30.7831 39.6324 30.8239 39.4418 30.9033C39.2507 30.9817 39.0771 31.0973 38.931 31.2435C38.785 31.3892 38.6694 31.563 38.5908 31.7538C38.5114 31.9446 38.4706 32.1492 38.471 32.3559V44.7267C38.4708 44.9333 38.5117 45.138 38.5913 45.3287C38.6696 45.5196 38.7851 45.6931 38.931 45.839C39.0771 45.9852 39.2507 46.1008 39.4418 46.1793C39.6324 46.2588 39.8369 46.2997 40.0434 46.2995H42.7518C42.9585 46.2997 43.1632 46.2589 43.3539 46.1793C43.5447 46.1007 43.718 45.9851 43.8638 45.839C44.0098 45.6931 44.1255 45.5197 44.204 45.3287C44.2835 45.1381 44.3244 44.9336 44.3242 44.7271V32.3563C44.3245 32.1496 44.2836 31.945 44.204 31.7542C44.1256 31.5635 44.0101 31.3902 43.8642 31.2444H43.8638C43.7178 31.0981 43.5442 30.9823 43.353 30.9037C43.1625 30.8242 42.9582 30.7833 42.7518 30.7835H40.0434ZM40.0434 31.8023H42.7518C42.8985 31.8025 43.0392 31.8608 43.1429 31.9644C43.2467 32.0681 43.3051 32.2087 43.3053 32.3554V44.7271C43.3053 44.8739 43.247 45.0147 43.1432 45.1185C43.0394 45.2223 42.8986 45.2806 42.7518 45.2806H40.0439C39.9712 45.2808 39.8992 45.2666 39.832 45.2388C39.7649 45.2111 39.7038 45.1703 39.6524 45.119C39.601 45.0675 39.5598 45.0064 39.5321 44.9392C39.5043 44.8719 39.4901 44.7998 39.4903 44.7271V32.3563C39.49 32.2467 39.5223 32.1394 39.5831 32.0483C39.644 31.9571 39.7306 31.886 39.8319 31.8442C39.899 31.8169 39.9697 31.8031 40.0439 31.8028L40.0434 31.8023Z" fill="black"/>
<path d="M19.7246 1.74374C19.4124 3.72004 20.3231 5.62642 21.6345 7.18635C22.7777 8.54589 24.2169 9.58525 25.1917 10.0978C25.1685 8.04759 24.8043 6.40171 23.9742 5.07824C23.1192 3.71648 21.7432 2.64238 19.7246 1.74463V1.74374ZM28.524 4.34348C27.9016 4.94503 27.3712 5.63494 26.9498 6.39102C26.3228 7.52746 25.8846 8.94267 26.1496 10.5338C26.163 10.6147 26.1567 10.6977 26.1311 10.7757C26.1056 10.8537 26.0616 10.9244 26.0029 10.9817C25.9441 11.039 25.8724 11.0813 25.7938 11.105C25.7153 11.1286 25.6321 11.133 25.5515 11.1176C24.5482 10.9256 23.7257 10.5556 22.9527 10.3035C22.1801 10.051 21.4729 9.90632 20.6014 10.0778C18.072 10.5752 16.0637 12.0193 14.856 15.4318C14.6561 15.9973 14.5407 16.5851 14.4819 17.1756C15.2746 15.9764 16.627 15.1833 18.1691 15.1833C20.4184 15.1833 22.266 16.871 22.5612 19.041C23.3307 18.3018 24.3416 17.812 25.4901 17.812C26.7873 17.812 27.9246 18.4189 28.7101 19.3349C29.2316 17.3617 31.0168 15.8931 33.1512 15.8931C35.0313 15.8931 36.6425 17.0295 37.3585 18.6496C37.6656 18.4991 37.9906 18.3885 38.3257 18.3205C38.2919 15.096 37.4547 13.7739 36.7551 12.7087C36.0413 11.7125 34.2293 10.0791 32.151 10.0132C31.1464 9.98247 30.588 10.2247 29.9387 10.524C29.2886 10.8237 28.5445 11.1937 27.4298 11.2334C27.2996 11.238 27.1726 11.1926 27.0749 11.1064C26.9772 11.0203 26.9161 10.9 26.9044 10.7702C26.6238 7.66106 28.377 5.67585 29.1648 4.94376C29.1024 4.86717 29.1078 4.86271 29.0267 4.77142C28.8593 4.58439 28.6914 4.47084 28.524 4.34348Z" fill="#D1D3D4"/>
<path d="M16.5498 26.5134V51.1449C16.5497 51.2944 16.5889 51.4412 16.6635 51.5707C16.7382 51.7001 16.8457 51.8077 16.9751 51.8824C18.0514 52.3949 21.173 53.6191 26.6455 53.6191C32.1549 53.6191 35.1835 52.1318 36.1979 51.5181C36.3171 51.4415 36.4152 51.3361 36.4832 51.2117C36.5511 51.0873 36.5867 50.9478 36.5866 50.8061C36.5889 47.5481 36.5889 29.2218 36.5889 26.5485C36.3858 26.6055 36.1836 26.6674 35.9792 26.7204C35.9409 26.9248 35.8896 27.1265 35.8256 27.3243C35.7624 27.5205 35.6828 27.7083 35.5869 27.8876L35.5856 27.8894C35.2405 28.5383 35.0859 29.2716 35.1394 30.0046L35.1412 30.046L35.142 30.405C35.1447 30.7233 35.0763 31.0382 34.9417 31.3267C34.8784 31.4639 34.8004 31.5938 34.7092 31.7142C34.6191 31.8324 34.5164 31.9405 34.4028 32.0366C34.2902 32.132 34.1683 32.216 34.039 32.2873C33.9085 32.3593 33.7716 32.4192 33.6302 32.4663C33.4866 32.5144 33.3391 32.5501 33.1894 32.5732C33.0376 32.5972 32.8827 32.6093 32.7244 32.6093C32.2438 32.609 31.7743 32.4648 31.3765 32.1951C30.9878 31.9318 30.683 31.5624 30.4983 31.1308C30.3726 30.8338 30.308 30.5146 30.3082 30.1921C30.3082 30.136 30.2957 30.0696 30.2752 30.0002C30.2523 29.9256 30.2218 29.8535 30.1844 29.7851C30.1469 29.7138 30.1022 29.6467 30.0508 29.5847C30.0041 29.5275 29.9488 29.4779 29.8869 29.4377L29.8931 29.4413C29.7282 29.3409 29.5708 29.2287 29.422 29.1055C29.2741 28.9822 29.1352 28.8484 29.0065 28.7052C28.8773 28.5621 28.7585 28.4098 28.6512 28.2496C28.5434 28.0881 28.4462 27.9197 28.3604 27.7455C27.6889 27.7625 27.0253 27.7625 26.3738 27.75C25.7345 27.7365 25.0955 27.7098 24.4572 27.6698C23.8479 27.6317 23.2393 27.5822 22.6319 27.5211C21.5312 27.4105 20.4346 27.2633 19.3437 27.0798C18.8688 26.9996 18.3953 26.912 17.9231 26.8171C17.5079 26.7339 17.094 26.6442 16.6816 26.5481L16.5498 26.5147V26.5134ZM19.4955 28.0764C19.6495 28.0763 19.802 28.1069 19.944 28.1664C20.0862 28.2249 20.2153 28.3112 20.3238 28.4202C20.4328 28.5286 20.5191 28.6575 20.5777 28.7996C20.6372 28.9416 20.6677 29.0941 20.6676 29.248V49.6202C20.6676 49.6816 20.6627 49.743 20.6529 49.8037C20.6434 49.8644 20.6291 49.9242 20.6102 49.9827C20.5916 50.0411 20.5683 50.098 20.5407 50.1528C20.5126 50.2075 20.4801 50.2599 20.4436 50.3095C20.4072 50.3588 20.3675 50.4055 20.3247 50.4494C20.2813 50.4928 20.2346 50.5327 20.1849 50.5687C20.1351 50.605 20.0826 50.6374 20.0277 50.6653C19.9729 50.693 19.916 50.7162 19.8576 50.7348C19.7992 50.7541 19.7393 50.7687 19.6786 50.7784C19.6181 50.7874 19.5571 50.7921 19.496 50.7927C19.3416 50.7933 19.1887 50.763 19.0462 50.7036C18.9042 50.645 18.7752 50.5588 18.6668 50.4498C18.5578 50.3412 18.4715 50.2119 18.413 50.0695C18.3538 49.9274 18.3235 49.775 18.3239 49.6211V29.2494C18.3235 29.0953 18.3537 28.9427 18.413 28.8005C18.4715 28.6583 18.5578 28.5291 18.6668 28.4206C18.7755 28.3116 18.9047 28.2253 19.0471 28.1668C19.1892 28.1076 19.3416 28.0773 19.4955 28.0777V28.0764Z" fill="#FBB040"/>
<path d="M19.4973 28.0755C19.3434 28.0754 19.191 28.1056 19.0488 28.1644C18.9066 28.2232 18.7774 28.3095 18.6685 28.4182C18.5597 28.527 18.4733 28.6562 18.4144 28.7983C18.3555 28.9405 18.3252 29.0928 18.3252 29.2467V49.6193C18.3251 49.7733 18.3553 49.9257 18.4142 50.068C18.473 50.2102 18.5594 50.3395 18.6682 50.4483C18.7771 50.5572 18.9063 50.6435 19.0486 50.7024C19.1908 50.7612 19.3433 50.7915 19.4973 50.7914C19.6512 50.7915 19.8037 50.7612 19.9459 50.7024C20.0882 50.6435 20.2174 50.5572 20.3263 50.4483C20.4352 50.3395 20.5215 50.2102 20.5803 50.068C20.6392 49.9257 20.6694 49.7733 20.6693 49.6193V29.2471C20.6694 29.0932 20.6391 28.9408 20.5802 28.7986C20.5213 28.6564 20.435 28.5272 20.3261 28.4184C20.2173 28.3096 20.088 28.2233 19.9458 28.1645C19.8036 28.1056 19.6512 28.0754 19.4973 28.0755Z" fill="#FFDB96"/>
<path d="M18.168 16.2013C17.3641 16.2008 16.5857 16.4829 15.9688 16.9982C15.352 17.5136 14.9359 18.2294 14.7934 19.0205C14.7727 19.1348 14.7135 19.2386 14.6257 19.3146C14.5379 19.3907 14.4268 19.4345 14.3107 19.4387C13.6084 19.4616 12.9427 19.7571 12.4545 20.2625C11.9664 20.7679 11.6943 21.4435 11.6958 22.1462C11.6958 23.4826 12.6563 24.5887 13.9215 24.8399L13.9126 24.8381C14.5835 24.9603 15.2482 25.1146 15.9045 25.3003L15.9107 25.3026C18.3675 25.9639 23.2962 26.911 28.6635 26.7298C28.7694 26.726 28.8739 26.7554 28.9622 26.814C29.0505 26.8725 29.1183 26.9572 29.1561 27.0562C29.3988 27.686 29.8436 28.2176 30.4208 28.5676L30.4252 28.572C30.701 28.743 30.9286 28.9815 31.0864 29.265C31.2442 29.5485 31.327 29.8676 31.327 30.1921C31.3258 30.3761 31.3612 30.5584 31.4311 30.7287C31.501 30.8989 31.6039 31.0535 31.734 31.1836C31.864 31.3138 32.0186 31.4168 32.1888 31.4868C32.3589 31.5568 32.5413 31.5923 32.7252 31.5913C33.1492 31.5913 33.5077 31.4603 33.7463 31.2586C33.985 31.0564 34.1249 30.7942 34.1249 30.405L34.1231 30.0465C34.0619 29.1316 34.2578 28.2178 34.6886 27.4084L34.69 27.4067C34.8794 27.0551 34.9975 26.6694 35.0373 26.272C35.0477 26.1677 35.0901 26.0691 35.1588 25.9898C35.2274 25.9106 35.3189 25.8545 35.4207 25.8294C36.3676 25.5946 37.3001 25.3054 38.2137 24.9632C38.5849 24.8205 38.9711 24.7204 39.3649 24.6649H39.3671C40.0164 24.5759 40.6114 24.2545 41.0417 23.7602C41.4721 23.2659 41.7085 22.6323 41.7072 21.977C41.7082 21.6205 41.6387 21.2674 41.5028 20.938C41.3669 20.6085 41.1671 20.3091 40.9151 20.0571C40.6631 19.8051 40.3637 19.6053 40.0342 19.4694C39.7048 19.3335 39.3517 19.264 38.9952 19.265C38.5107 19.265 38.0601 19.3919 37.6655 19.6141C37.6273 19.636 37.5862 19.6527 37.5435 19.6636L37.1868 19.7571C37.0604 19.7902 36.926 19.7735 36.8115 19.7103C36.697 19.6472 36.6112 19.5424 36.5719 19.4178C36.3417 18.6904 35.8859 18.0552 35.2703 17.6045C34.6548 17.1537 33.9117 16.9109 33.1487 16.9111C32.6463 16.9099 32.1493 17.0144 31.6899 17.2178C31.2305 17.4212 30.819 17.7189 30.4821 18.0916C30.1452 18.4644 29.8905 18.9038 29.7345 19.3813C29.5785 19.8589 29.5246 20.364 29.5764 20.8637C29.5897 20.9888 29.5562 21.1145 29.4823 21.2164C29.4084 21.3182 29.2995 21.3892 29.1764 21.4155C29.0533 21.4418 28.9249 21.4217 28.8158 21.3589C28.7067 21.2962 28.6247 21.1953 28.5856 21.0757C28.3718 20.4226 27.9571 19.8539 27.4007 19.4507C26.8443 19.0474 26.1747 18.8303 25.4876 18.8304C24.796 18.83 24.1223 19.0496 23.5638 19.4574C23.0053 19.8652 22.5909 20.44 22.3806 21.0988L22.3642 21.1091V21.1113L22.3628 21.1095C22.3242 21.2206 22.2483 21.3149 22.1481 21.3764C22.0479 21.438 21.9294 21.4629 21.8129 21.447L21.8004 21.4453C21.727 21.4332 21.6572 21.4052 21.5958 21.3633C21.5344 21.3213 21.4829 21.2665 21.4449 21.2025C21.407 21.1385 21.3835 21.0671 21.3762 20.9931C21.3688 20.9191 21.3777 20.8444 21.4023 20.7742C21.586 20.2568 21.6427 19.7027 21.5675 19.1588C21.4923 18.6149 21.2874 18.0971 20.9702 17.6489C20.653 17.2007 20.2326 16.8354 19.7446 16.5837C19.2566 16.332 18.7153 16.2013 18.1662 16.2026L18.168 16.2013ZM38.4707 25.9523C38.0804 26.0975 37.6856 26.2306 37.287 26.3513C37.0559 26.4225 36.8226 26.4831 36.5901 26.5477C36.5901 29.2195 36.5901 47.5455 36.5879 50.8052C36.588 50.947 36.5525 51.0866 36.4845 51.2111C36.4166 51.3356 36.3185 51.441 36.1991 51.5177C36.0727 51.5943 35.9141 51.6842 35.724 51.7835C35.5334 51.8828 35.3098 51.9915 35.0542 52.1041C34.7682 52.2297 34.478 52.3456 34.1841 52.4515C33.8298 52.5791 33.4713 52.6945 33.1091 52.7975C32.4478 52.9848 31.7771 53.1371 31.0999 53.2539C30.5653 53.3474 30.0277 53.4217 29.4878 53.4766C29.2004 53.5063 28.9036 53.5317 28.5972 53.5527C27.9481 53.597 27.2977 53.6187 26.6472 53.6178C25.999 53.6188 25.351 53.601 24.7038 53.5643C24.4071 53.5475 24.1107 53.5265 23.8145 53.5011C23.2734 53.4552 22.7336 53.3943 22.1958 53.3185C21.9519 53.2833 21.7084 53.2447 21.4655 53.2027C21.029 53.128 20.5946 53.041 20.163 52.9418C19.7946 52.8568 19.4287 52.7615 19.0657 52.6559C18.7652 52.5684 18.4672 52.4726 18.172 52.3687C17.9378 52.286 17.7058 52.1971 17.4764 52.1019C17.3078 52.0323 17.1411 51.9583 16.9763 51.8801C16.8467 51.8055 16.7391 51.6981 16.6643 51.5686C16.5895 51.4391 16.5501 51.2922 16.5502 51.1427V26.5125C16.2454 26.4407 15.9417 26.3645 15.6391 26.284L15.6328 26.2822C15.3197 26.1936 15.0044 26.1123 14.6874 26.0387L14.6086 26.0217L14.6696 54.4153C14.6708 54.4714 14.6855 54.5264 14.7126 54.5756C14.7397 54.6248 14.7782 54.6666 14.825 54.6976C14.9444 54.7662 15.1038 54.8459 15.306 54.9314C15.5077 55.0183 15.7522 55.1118 16.0412 55.208C16.3311 55.3042 16.6655 55.4039 17.0476 55.5037C17.4305 55.6021 17.8603 55.7009 18.3399 55.7953C18.8204 55.8897 19.3498 55.9806 19.9336 56.0625C20.5161 56.1456 21.1526 56.2184 21.8431 56.2807C22.5891 56.348 23.3365 56.3973 24.0848 56.4286C24.9472 56.4655 25.8103 56.4837 26.6734 56.4829C27.5494 56.4831 28.4252 56.4593 29.2999 56.4116C29.691 56.3893 30.0817 56.3613 30.472 56.3275C30.8329 56.2964 31.1934 56.2597 31.5532 56.2175C31.8852 56.1783 32.2165 56.1338 32.5471 56.0839C32.8502 56.038 33.1524 55.9871 33.4538 55.9312C33.7944 55.8683 34.1337 55.7981 34.4713 55.7205C34.7703 55.6517 35.0677 55.5759 35.3633 55.4934C35.6222 55.4212 35.8794 55.3428 36.1346 55.2583C36.355 55.1851 36.5736 55.1064 36.7901 55.0223C36.9893 54.9448 37.1704 54.8688 37.3333 54.7943C37.4966 54.7201 37.6428 54.6488 37.772 54.5805C37.8863 54.5202 37.9986 54.456 38.1086 54.3881C38.1905 54.3374 38.2703 54.2833 38.3478 54.2261C38.3843 54.1944 38.414 54.1556 38.435 54.1121C38.4561 54.0686 38.4668 54.0209 38.4662 53.9727V53.9704C38.4707 53.1609 38.4707 51.275 38.4707 50.1617C38.4707 49.8893 38.5527 49.6232 38.706 49.398C38.8593 49.1727 39.0767 48.9988 39.3301 48.8988C39.4982 48.8325 39.6776 48.7998 39.8583 48.8026C40.7885 48.8151 41.9063 48.8168 42.9692 48.8151H42.9737C43.1925 48.8157 43.4109 48.7948 43.6256 48.7527C44.1614 48.6469 44.6628 48.4107 45.0855 48.0649C45.5082 47.7191 45.8391 47.2744 46.049 46.7702C46.2162 46.3667 46.3026 45.9343 46.3033 45.4975V31.7133C46.3034 30.9468 46.0381 30.204 45.5525 29.611C45.241 29.2311 44.8493 28.9251 44.4053 28.7149C43.9614 28.5047 43.4764 28.3955 42.9852 28.3953H39.8307C39.5603 28.3958 39.2962 28.3142 39.0732 28.1615C38.9284 28.0633 38.8035 27.9385 38.7053 27.7936C38.5525 27.5708 38.4708 27.3068 38.4711 27.0366L38.4707 25.9523ZM40.0426 30.7821H42.751C42.9574 30.7819 43.1617 30.8226 43.3522 30.9019C43.5433 30.9804 43.7169 31.096 43.863 31.2421C44.0093 31.3881 44.1251 31.5618 44.2036 31.7529C44.283 31.9434 44.3237 32.1477 44.3234 32.3541V44.7258C44.3238 44.9321 44.2832 45.1364 44.2041 45.3269C44.1256 45.5179 44.0099 45.6914 43.8638 45.8373H43.863C43.7173 45.9832 43.5442 46.0989 43.3535 46.1775C43.1629 46.257 42.9584 46.2979 42.7519 46.2977H40.0426C39.8362 46.2982 39.6317 46.2576 39.441 46.1784C39.2502 46.0997 39.0768 45.9839 38.9311 45.8377C38.7848 45.6917 38.669 45.5181 38.5905 45.3269C38.5113 45.1364 38.4707 44.9321 38.4711 44.7258V32.3541C38.4705 32.1476 38.5109 31.9432 38.59 31.7525C38.6685 31.5615 38.7841 31.388 38.9302 31.2421H38.9311C39.077 31.0959 39.2504 30.9801 39.4414 30.9015C39.6319 30.8221 39.8363 30.7819 40.0426 30.7821Z" fill="white"/>
</g>
<defs>
<clipPath id="clip0_304_319">
<rect width="57" height="57" fill="white" transform="translate(0.5 0.5)"/>
</clipPath>
</defs>
</svg>
