<svg width="172" height="180" viewBox="0 0 172 180" fill="none" xmlns="http://www.w3.org/2000/svg">
<path d="M122 152.308V24.7721L145 0H44.8047C37.4045 0 30.3074 2.91757 25.0747 8.11089C19.842 13.3042 16.9023 20.3479 16.9023 27.6923V152.308C16.9023 157.428 15.4734 162.403 12.8347 166.705C10.5341 170.457 6.80826 173.014 3.01045 175.238L0.943422 176.448C0.359086 176.79 0 177.416 0 178.093C0 179.146 0.8537 180 1.90679 180H93.6337C101.034 180 108.131 177.082 113.364 171.889C118.596 166.696 122 159.652 122 152.308Z" fill="#D9D9D9"/>
<path d="M122 152.308V24.7721L145 0H44.8047C37.4045 0 30.3074 2.91757 25.0747 8.11089C19.842 13.3042 16.9023 20.3479 16.9023 27.6923V152.308C16.9023 157.428 15.4734 162.403 12.8347 166.705C10.5341 170.457 6.80826 173.014 3.01045 175.238L0.943422 176.448C0.359086 176.79 0 177.416 0 178.093C0 179.146 0.8537 180 1.90679 180H93.6337C101.034 180 108.131 177.082 113.364 171.889C118.596 166.696 122 159.652 122 152.308Z" fill="url(#paint0_linear_490_396)"/>
<path d="M147 0C153.63 0 159.989 3.1083 164.678 7.64151C169.366 12.1747 172 18.3231 172 24.734V35.0936C172 36.9253 171.247 38.682 169.908 39.9772C168.568 41.2724 166.752 42 164.857 42H122V24.734C122 18.3231 124.634 12.1747 129.322 7.64151C134.011 3.1083 140.37 0 147 0Z" fill="#000001"/>
<path d="M147 0C153.63 0 159.989 3.1083 164.678 7.64151C169.366 12.1747 172 18.3231 172 24.734V35.0936C172 36.9253 171.247 38.682 169.908 39.9772C168.568 41.2724 166.752 42 164.857 42H122V24.734C122 18.3231 124.634 12.1747 129.322 7.64151C134.011 3.1083 140.37 0 147 0Z" fill="url(#paint1_linear_490_396)"/>
<path d="M147 0C153.63 0 159.989 3.1083 164.678 7.64151C169.366 12.1747 172 18.3231 172 24.734V35.0936C172 36.9253 171.247 38.682 169.908 39.9772C168.568 41.2724 166.752 42 164.857 42H122V24.734C122 18.3231 124.634 12.1747 129.322 7.64151C134.011 3.1083 140.37 0 147 0Z" fill="url(#paint2_linear_490_396)"/>
<defs>
<linearGradient id="paint0_linear_490_396" x1="-6.30909" y1="83.8874" x2="128.044" y2="139.512" gradientUnits="userSpaceOnUse">
<stop offset="0.05" stop-color="#2D24E9"/>
<stop offset="0.557476" stop-color="#01A4FF"/>
<stop offset="1" stop-color="#01FFC2"/>
</linearGradient>
<linearGradient id="paint1_linear_490_396" x1="162.291" y1="26.3974" x2="117.763" y2="14.6407" gradientUnits="userSpaceOnUse">
<stop stop-color="#2D24E9"/>
<stop offset="1" stop-color="#111111"/>
</linearGradient>
<linearGradient id="paint2_linear_490_396" x1="122.211" y1="20.7809" x2="178.453" y2="31.4042" gradientUnits="userSpaceOnUse">
<stop stop-color="#2D24E9"/>
<stop offset="1" stop-color="#01A4FF"/>
</linearGradient>
</defs>
</svg>
