<svg width="18" height="18" viewBox="0 0 18 18" fill="none" xmlns="http://www.w3.org/2000/svg">
<path d="M18.0001 1V14C18.0001 14.2652 17.8947 14.5196 17.7072 14.7071C17.5196 14.8946 17.2653 15 17.0001 15C16.7349 15 16.4805 14.8946 16.293 14.7071C16.1054 14.5196 16.0001 14.2652 16.0001 14V3.41375L1.70757 17.7075C1.51993 17.8951 1.26543 18.0006 1.00007 18.0006C0.734704 18.0006 0.480208 17.8951 0.292568 17.7075C0.104927 17.5199 -0.000488281 17.2654 -0.000488281 17C-0.000488281 16.7346 0.104927 16.4801 0.292568 16.2925L14.5863 2H4.00007C3.73485 2 3.4805 1.89464 3.29296 1.70711C3.10542 1.51957 3.00007 1.26522 3.00007 1C3.00007 0.734784 3.10542 0.48043 3.29296 0.292893C3.4805 0.105357 3.73485 0 4.00007 0H17.0001C17.2653 0 17.5196 0.105357 17.7072 0.292893C17.8947 0.48043 18.0001 0.734784 18.0001 1Z" fill="white"/>
</svg>
