<svg width="24" height="25" viewBox="0 0 24 25" fill="none" xmlns="http://www.w3.org/2000/svg">
<path d="M13.3125 17C13.3125 17.1492 13.2532 17.2923 13.1478 17.3977C13.0423 17.5032 12.8992 17.5625 12.75 17.5625C12.4019 17.5625 12.0681 17.4242 11.8219 17.1781C11.5758 16.9319 11.4375 16.5981 11.4375 16.25V12.5C11.4375 12.4503 11.4178 12.4026 11.3826 12.3674C11.3474 12.3323 11.2997 12.3125 11.25 12.3125C11.1008 12.3125 10.9577 12.2532 10.8523 12.1477C10.7468 12.0423 10.6875 11.8992 10.6875 11.75C10.6875 11.6008 10.7468 11.4577 10.8523 11.3523C10.9577 11.2468 11.1008 11.1875 11.25 11.1875C11.5981 11.1875 11.9319 11.3258 12.1781 11.5719C12.4242 11.8181 12.5625 12.1519 12.5625 12.5V16.25C12.5625 16.2997 12.5823 16.3474 12.6174 16.3826C12.6526 16.4177 12.7003 16.4375 12.75 16.4375C12.8992 16.4375 13.0423 16.4968 13.1478 16.6023C13.2532 16.7077 13.3125 16.8508 13.3125 17ZM11.625 9.3125C11.8104 9.3125 11.9917 9.25752 12.1459 9.1545C12.3 9.05149 12.4202 8.90507 12.4911 8.73377C12.5621 8.56246 12.5807 8.37396 12.5445 8.1921C12.5083 8.01025 12.419 7.8432 12.2879 7.71209C12.1568 7.58098 11.9898 7.49169 11.8079 7.45551C11.626 7.41934 11.4375 7.43791 11.2662 7.50886C11.0949 7.57982 10.9485 7.69998 10.8455 7.85415C10.7425 8.00832 10.6875 8.18958 10.6875 8.375C10.6875 8.62364 10.7863 8.8621 10.9621 9.03791C11.1379 9.21373 11.3764 9.3125 11.625 9.3125ZM21.5625 12.5C21.5625 14.3913 21.0017 16.2401 19.9509 17.8126C18.9002 19.3852 17.4067 20.6108 15.6594 21.3346C13.9121 22.0584 11.9894 22.2477 10.1345 21.8788C8.27951 21.5098 6.57564 20.599 5.2383 19.2617C3.90096 17.9244 2.99022 16.2205 2.62125 14.3656C2.25227 12.5106 2.44164 10.5879 3.16541 8.84059C3.88917 7.09327 5.11482 5.59981 6.68736 4.54907C8.25991 3.49833 10.1087 2.9375 12 2.9375C14.5352 2.94048 16.9658 3.94891 18.7584 5.74158C20.5511 7.53425 21.5595 9.96478 21.5625 12.5ZM20.4375 12.5C20.4375 10.8312 19.9427 9.19992 19.0155 7.81238C18.0884 6.42484 16.7706 5.34338 15.2289 4.70477C13.6871 4.06615 11.9906 3.89906 10.3539 4.22462C8.71722 4.55019 7.2138 5.35378 6.03379 6.53379C4.85379 7.71379 4.05019 9.21721 3.72463 10.8539C3.39907 12.4906 3.56616 14.1871 4.20477 15.7289C4.84338 17.2706 5.92484 18.5884 7.31238 19.5155C8.69992 20.4426 10.3312 20.9375 12 20.9375C14.237 20.935 16.3817 20.0453 17.9635 18.4635C19.5453 16.8817 20.435 14.737 20.4375 12.5Z" fill="white"/>
</svg>
