<svg width="52" height="52" viewBox="0 0 52 52" fill="none" xmlns="http://www.w3.org/2000/svg">
<path fill-rule="evenodd" clip-rule="evenodd" d="M21.9416 0.700253C16.5482 1.19334 11.4191 3.56471 7.46679 7.395C2.69609 12.0183 0.083252 18.1513 0.083252 24.7292C0.083252 33.0506 4.38884 40.7823 11.5208 45.2684C17.7097 49.1597 25.7058 49.9476 32.6674 47.35C34.838 46.5392 37.7075 44.9405 39.0216 43.8069L39.3774 43.5019L43.1899 47.2941C45.7468 49.8408 47.1498 51.1625 47.4523 51.315C48.347 51.7649 49.2747 51.5387 50.1566 50.6567C51.0386 49.7748 51.2648 48.847 50.8149 47.9524C50.6624 47.6499 49.3408 46.2469 46.794 43.69L43.0018 39.8775L43.3068 39.5217C43.9245 38.8049 45.2461 36.708 45.8307 35.5135C49.2315 28.5696 49.2315 20.876 45.8333 13.9525C43.9677 10.1527 40.661 6.51559 37.0213 4.25859C32.52 1.46529 27.2232 0.214795 21.9416 0.700253ZM26.0667 5.77596C30.4943 6.21821 34.5559 8.13717 37.6872 11.271C42.801 16.3823 44.5777 23.9184 42.2851 30.7707C40.8592 35.0331 37.8295 38.7897 33.9383 41.1204C29.9173 43.5248 25.0068 44.3407 20.3098 43.385C13.9913 42.0964 8.53175 37.3384 6.30779 31.185C4.81584 27.0548 4.81584 22.4035 6.30779 18.2733C8.56988 12.0107 14.0345 7.3213 20.5691 6.03013C22.3279 5.68446 24.2418 5.5955 26.0667 5.77596Z" fill="white" fill-opacity="0.83"/>
</svg>
