<?xml version="1.0" standalone="no"?>
<!DOCTYPE svg PUBLIC "-//W3C//DTD SVG 20010904//EN"
 "http://www.w3.org/TR/2001/REC-SVG-20010904/DTD/svg10.dtd">
<svg version="1.0" xmlns="http://www.w3.org/2000/svg"
 width="480.000000pt" height="480.000000pt" viewBox="0 0 480.000000 480.000000"
 preserveAspectRatio="xMidYMid meet">
<metadata>
Created by potrace 1.14, written by Peter Selinger 2001-2017
</metadata>
<g transform="translate(0.000000,480.000000) scale(0.100000,-0.100000)"
fill="#000000" stroke="none">
<path d="M895 4790 c-238 -25 -450 -132 -617 -309 -156 -166 -244 -357 -268
-586 -13 -120 -13 -2870 0 -2990 27 -252 127 -456 309 -627 166 -156 357 -244
586 -268 120 -13 2870 -13 2990 0 252 27 456 127 627 309 156 166 244 357 268
586 13 120 13 2870 0 2990 -27 252 -127 456 -309 627 -166 156 -357 244 -586
268 -106 11 -2894 11 -3000 0z m2920 -605 c175 -46 327 -193 371 -359 9 -33
14 -107 14 -211 0 -176 -6 -196 -66 -236 -27 -18 -55 -19 -481 -19 l-453 0 0
-1147 -1 -1148 -22 -66 c-12 -36 -38 -91 -57 -123 -45 -75 -154 -178 -228
-215 -125 -63 -85 -61 -1144 -61 -736 0 -967 3 -976 12 -24 24 -13 48 34 76
146 85 214 161 262 293 l27 74 5 1355 5 1355 23 60 c72 189 231 326 427 365
22 4 526 8 1120 9 941 1 1088 -1 1140 -14z"/>
</g>
</svg>
