<?xml version="1.0" standalone="no"?>
<!DOCTYPE svg PUBLIC "-//W3C//DTD SVG 20010904//EN"
 "http://www.w3.org/TR/2001/REC-SVG-20010904/DTD/svg10.dtd">
<svg version="1.0" xmlns="http://www.w3.org/2000/svg"
 width="1084.000000pt" height="1084.000000pt" viewBox="0 0 1084.000000 1084.000000"
 preserveAspectRatio="xMidYMid meet">
<metadata>
Created by potrace 1.14, written by Peter Selinger 2001-2017
</metadata>
<g transform="translate(0.000000,1084.000000) scale(0.100000,-0.100000)"
fill="#000000" stroke="none">
<path d="M3545 10758 c-46 -41 -70 -167 -69 -368 0 -155 7 -203 40 -315 14
-44 26 -84 27 -90 7 -29 56 -139 90 -205 22 -41 45 -85 51 -97 6 -13 14 -23
19 -23 4 0 7 -5 7 -10 0 -9 37 -66 99 -150 44 -60 133 -162 208 -239 40 -41
73 -75 73 -77 0 -1 -42 -2 -92 -1 -89 1 -204 -10 -221 -20 -5 -3 -23 -7 -40
-10 -94 -14 -337 -112 -462 -186 -129 -76 -317 -252 -418 -389 -32 -42 -57
-79 -57 -82 0 -3 -11 -22 -25 -42 -24 -35 -145 -268 -145 -279 0 -3 -7 -22
-16 -43 -19 -45 -72 -207 -78 -242 -3 -14 -9 -40 -15 -58 -5 -18 -10 -33 -9
-35 1 -4 -15 -142 -18 -161 -2 -10 -4 -70 -5 -133 -2 -99 -5 -115 -21 -124
-10 -5 -18 -7 -18 -4 0 3 -11 -2 -25 -11 -14 -9 -25 -13 -25 -9 0 3 -13 -3
-30 -15 -16 -12 -30 -19 -30 -16 0 7 -98 -60 -118 -81 -7 -7 -21 -18 -30 -25
-73 -54 -184 -246 -199 -343 -2 -16 -8 -46 -12 -65 -8 -37 -6 -189 3 -229 41
-179 118 -307 253 -421 59 -50 202 -125 253 -132 17 -2 25 -10 26 -23 1 -11 3
-22 3 -25 1 -3 4 -1080 7 -2395 7 -3174 5 -3001 29 -3050 30 -62 72 -102 144
-136 36 -17 75 -36 86 -41 60 -32 404 -134 510 -151 17 -3 53 -10 80 -16 28
-6 64 -13 80 -16 35 -6 149 -24 185 -30 79 -12 109 -16 145 -20 22 -2 63 -7
90 -11 28 -3 70 -7 95 -9 25 -3 70 -7 100 -9 182 -17 267 -22 560 -31 348 -10
470 -11 470 -2 0 4 8 3 19 -2 10 -6 21 -8 23 -5 3 2 77 7 164 10 175 5 329 12
329 14 0 1 18 3 40 5 70 5 199 18 290 29 28 3 68 8 90 11 22 2 51 7 65 10 13
2 42 8 65 11 22 4 49 8 60 10 35 5 179 33 205 39 14 3 34 8 45 10 42 10 62 15
113 29 29 8 55 15 57 15 3 1 10 3 17 6 7 2 54 16 103 30 50 15 104 33 120 40
38 16 67 27 80 30 52 12 323 164 333 188 2 4 9 13 16 20 13 13 39 56 42 70 1
4 2 8 4 10 9 11 11 91 14 422 2 209 4 388 4 397 3 33 50 44 182 42 69 -2 127
-3 130 -4 3 -2 9 -2 15 0 11 2 196 2 210 -1 6 -1 13 -1 18 0 4 1 58 3 120 5
67 3 140 12 182 23 76 21 192 70 213 90 6 6 21 15 32 18 11 3 20 10 20 15 0 5
8 11 18 14 24 8 133 118 178 181 59 81 113 208 140 330 4 17 8 655 9 1420 2
1473 2 1445 -45 1585 -89 261 -322 468 -590 525 -14 2 -38 8 -55 11 -16 3
-191 7 -389 9 l-359 2 -16 22 c-14 19 -17 46 -17 156 1 73 3 135 6 137 3 2 40
12 83 23 42 10 77 23 77 28 0 6 3 8 6 4 8 -7 104 43 153 80 42 33 151 143 151
154 0 4 6 14 13 21 26 26 89 171 103 235 20 97 20 280 0 300 -3 4 -6 15 -6 25
0 11 -14 54 -32 96 -54 131 -134 229 -253 312 -40 27 -75 50 -78 50 -2 0 -22
8 -43 17 -22 10 -77 26 -123 38 l-84 21 -2 80 c-3 76 -10 164 -20 244 -3 19
-7 53 -10 75 -3 22 -7 49 -10 60 -3 11 -12 52 -20 90 -39 174 -134 392 -246
563 -61 93 -208 252 -304 329 -128 102 -326 213 -425 239 -8 2 -40 11 -70 19
-30 9 -64 18 -75 21 -29 7 -162 17 -215 17 -43 0 -165 -10 -165 -13 0 -1 -11
-3 -25 -6 -50 -9 -153 -46 -272 -98 -124 -54 -155 -67 -173 -72 -79 -24 -116
-31 -120 -23 -10 15 5 160 26 249 20 87 28 114 61 187 10 24 23 53 28 65 39
89 154 240 253 334 124 117 124 128 2 280 -22 27 -63 69 -92 94 -29 25 -59 51
-67 58 -25 21 -100 48 -125 44 -28 -4 -173 -146 -253 -247 -76 -95 -156 -217
-198 -303 -19 -39 -38 -71 -42 -72 -4 0 -10 10 -13 23 -16 52 -79 203 -91 218
-8 8 -14 20 -14 26 0 16 -78 137 -144 222 -53 67 -179 198 -232 241 -94 75
-223 165 -259 181 -11 5 -33 18 -50 29 -35 22 -197 105 -207 105 -4 0 -13 6
-19 13 -7 6 -18 12 -25 12 -7 0 -36 11 -66 25 -66 31 -109 32 -143 3z m4519
-5883 c15 -10 31 -27 37 -37 7 -13 11 -405 10 -1208 0 -1307 4 -1237 -59
-1262 -35 -14 -195 -16 -204 -3 -5 7 -11 7 -15 0 -7 -8 -124 -10 -258 -5 -5 1
-26 -1 -46 -3 -50 -5 -115 27 -125 61 -4 15 -9 558 -9 1207 -2 1240 -3 1207
41 1247 26 22 40 23 340 22 232 -1 263 -3 288 -19z"/>
</g>
</svg>
